<svg width="209" height="29" viewBox="0 0 209 29" fill="none" xmlns="http://www.w3.org/2000/svg">
<path d="M0.12 19.93C0.64 19.93 1.07 19.78 1.41 19.48C1.77 19.18 2.05 18.82 2.25 18.4C2.45 17.96 2.7 17.33 3 16.51L8.85 0.459998H10.95L17.34 16.81C17.5 17.21 17.67 17.71 17.85 18.31C18.03 18.89 18.14 19.38 18.18 19.78C18.84 19.72 19.42 19.69 19.92 19.69V22H11.85L11.85 20.02C12.81 20.02 13.29 19.62 13.29 18.82C13.29 18.42 13.18 17.94 12.96 17.38L12.36 15.73L5.85 15.85L5.37 17.26C5.31 17.42 5.17 17.78 4.95 18.34C4.75 18.9 4.57 19.35 4.41 19.69C5.05 19.63 5.76 19.6 6.54 19.6V22H0.12L0.12 19.93ZM11.61 13.6L10.23 9.85C9.65 8.21 9.27 6.84 9.09 5.74H9.06C8.74 7.18 8.37 8.5 7.95 9.7L6.6 13.6L11.61 13.6ZM25.6226 20.05C26.3826 20.05 26.8626 19.84 27.0626 19.42C27.2826 19 27.3926 18.32 27.3926 17.38V12.34C27.3926 11.44 27.4326 10.59 27.5126 9.79L25.4126 9.88V7.6C26.6726 7.6 27.6926 7.51 28.4726 7.33C29.2526 7.15 29.7726 6.94 30.0326 6.7H31.5026C31.5426 7 31.5726 7.39 31.5926 7.87C31.6126 8.35 31.6226 8.82 31.6226 9.28H31.6826C33.0426 7.44 34.4826 6.52 36.0026 6.52C36.7626 6.52 37.3826 6.73 37.8626 7.15C38.3626 7.57 38.6126 8.19 38.6126 9.01C38.6126 9.53 38.4426 10.01 38.1026 10.45C37.7626 10.89 37.2526 11.11 36.5726 11.11C36.0726 11.11 35.6226 10.98 35.2226 10.72C34.8426 10.46 34.6226 10.01 34.5626 9.37C34.0026 9.37 33.4226 9.7 32.8226 10.36C32.2426 11 31.8526 11.64 31.6526 12.28V17.17C31.6526 18.13 31.6126 19.01 31.5326 19.81C32.1726 19.75 32.8226 19.72 33.4826 19.72V22L25.6226 22V20.05ZM50.4766 22.48C47.3566 22.48 45.7966 20.56 45.7966 16.72L45.8566 9.49H43.8166V7C44.4566 7 45.0566 6.8 45.6166 6.4C46.1966 6 46.6866 5.51 47.0866 4.93C47.4866 4.35 47.7666 3.79 47.9266 3.25L50.1466 3.25L50.1166 7H53.9266V9.31L50.1166 9.4L50.0866 16.78C50.0866 18.72 50.6866 19.69 51.8866 19.69C52.8466 19.69 53.7566 19.09 54.6166 17.89L56.0566 19.24C55.1166 20.62 54.1766 21.51 53.2366 21.91C52.2966 22.29 51.3766 22.48 50.4766 22.48ZM64.4892 24.43C64.4892 25.19 64.8892 25.81 65.6892 26.29C66.5092 26.77 67.6992 27.01 69.2592 27.01C70.0992 27.01 70.8592 26.92 71.5392 26.74C72.2192 26.58 72.7992 26.36 73.2792 26.08C73.7592 25.8 74.1192 25.48 74.3592 25.12C74.6192 24.76 74.7492 24.39 74.7492 24.01C74.7492 23.31 74.4692 22.84 73.9092 22.6C73.3692 22.36 72.5392 22.24 71.4192 22.24H68.5692C68.1492 22.24 67.7492 22.22 67.3692 22.18C67.0092 22.16 66.6692 22.1 66.3492 22C65.6492 22.38 65.1592 22.77 64.8792 23.17C64.6192 23.59 64.4892 24.01 64.4892 24.43ZM62.3592 24.67C62.3592 24.09 62.5592 23.52 62.9592 22.96C63.3792 22.4 63.9792 21.89 64.7592 21.43V21.31C64.3592 21.09 64.0092 20.79 63.7092 20.41C63.4092 20.03 63.2592 19.53 63.2592 18.91C63.2592 18.45 63.4092 17.98 63.7092 17.5C64.0092 17 64.4392 16.56 64.9992 16.18V16.06C64.4992 15.68 64.0692 15.18 63.7092 14.56C63.3692 13.92 63.1992 13.16 63.1992 12.28C63.1992 11.48 63.3492 10.76 63.6492 10.12C63.9692 9.48 64.3892 8.94 64.9092 8.5C65.4292 8.04 66.0292 7.69 66.7092 7.45C67.4092 7.19 68.1492 7.06 68.9292 7.06C69.7292 7.06 70.4492 7.18 71.0892 7.42L77.1192 7.42V9.31H73.2192C73.5592 9.67 73.8692 10.11 74.1492 10.63C74.4292 11.15 74.5692 11.73 74.5692 12.37C74.5692 13.15 74.4192 13.85 74.1192 14.47C73.8392 15.09 73.4392 15.62 72.9192 16.06C72.4192 16.48 71.8192 16.81 71.1192 17.05C70.4392 17.27 69.7092 17.38 68.9292 17.38C68.5492 17.38 68.1392 17.34 67.6992 17.26C67.2792 17.16 66.8692 17.02 66.4692 16.84C65.7092 17.32 65.3292 17.88 65.3292 18.52C65.3292 19.1 65.5892 19.53 66.1092 19.81C66.6492 20.07 67.3992 20.2 68.3592 20.2H71.6292C73.5092 20.2 74.8992 20.46 75.7992 20.98C76.7192 21.5 77.1792 22.38 77.1792 23.62C77.1792 24.3 76.9892 24.95 76.6092 25.57C76.2292 26.19 75.6892 26.73 74.9892 27.19C74.2892 27.65 73.4392 28.02 72.4392 28.3C71.4392 28.58 70.3192 28.72 69.0792 28.72C66.9392 28.72 65.2792 28.37 64.0992 27.67C62.9392 26.97 62.3592 25.97 62.3592 24.67ZM68.9292 15.73C69.8692 15.73 70.6592 15.42 71.2992 14.8C71.9592 14.18 72.2892 13.34 72.2892 12.28C72.2892 11.78 72.1992 11.32 72.0192 10.9C71.8392 10.48 71.5992 10.12 71.2992 9.82C70.9992 9.52 70.6392 9.29 70.2192 9.13C69.8192 8.95 69.3892 8.86 68.9292 8.86C68.4692 8.86 68.0292 8.95 67.6092 9.13C67.2092 9.29 66.8592 9.52 66.5592 9.82C66.2592 10.12 66.0192 10.48 65.8392 10.9C65.6592 11.32 65.5692 11.78 65.5692 12.28C65.5692 13.34 65.8992 14.18 66.5592 14.8C67.2192 15.42 68.0092 15.73 68.9292 15.73ZM81.4875 14.74C81.4875 13.52 81.6775 12.44 82.0575 11.5C82.4575 10.54 82.9875 9.73 83.6475 9.07C84.3075 8.41 85.0675 7.91 85.9275 7.57C86.8075 7.23 87.7275 7.06 88.6875 7.06C89.6475 7.06 90.5575 7.23 91.4175 7.57C92.2975 7.91 93.0675 8.41 93.7275 9.07C94.3875 9.73 94.9075 10.54 95.2875 11.5C95.6875 12.44 95.8875 13.52 95.8875 14.74C95.8875 15.94 95.6875 17.02 95.2875 17.98C94.9075 18.92 94.3875 19.72 93.7275 20.38C93.0675 21.02 92.2975 21.51 91.4175 21.85C90.5575 22.19 89.6475 22.36 88.6875 22.36C87.7275 22.36 86.8075 22.19 85.9275 21.85C85.0675 21.51 84.3075 21.02 83.6475 20.38C82.9875 19.72 82.4575 18.92 82.0575 17.98C81.6775 17.02 81.4875 15.94 81.4875 14.74ZM84.0375 14.74C84.0375 15.58 84.1475 16.34 84.3675 17.02C84.5875 17.7 84.8975 18.29 85.2975 18.79C85.7175 19.27 86.2075 19.65 86.7675 19.93C87.3475 20.19 87.9875 20.32 88.6875 20.32C89.3875 20.32 90.0175 20.19 90.5775 19.93C91.1575 19.65 91.6475 19.27 92.0475 18.79C92.4675 18.29 92.7875 17.7 93.0075 17.02C93.2275 16.34 93.3375 15.58 93.3375 14.74C93.3375 13.9 93.2275 13.14 93.0075 12.46C92.7875 11.76 92.4675 11.16 92.0475 10.66C91.6475 10.16 91.1575 9.78 90.5775 9.52C90.0175 9.24 89.3875 9.1 88.6875 9.1C87.9875 9.1 87.3475 9.24 86.7675 9.52C86.2075 9.78 85.7175 10.16 85.2975 10.66C84.8975 11.16 84.5875 11.76 84.3675 12.46C84.1475 13.14 84.0375 13.9 84.0375 14.74ZM103.556 7.42L105.596 7.42L105.806 10.87H105.896C106.656 9.69 107.586 8.76 108.686 8.08C109.806 7.4 111.046 7.06 112.406 7.06C112.946 7.06 113.446 7.11 113.906 7.21C114.366 7.29 114.826 7.44 115.286 7.66L114.716 9.79C114.196 9.61 113.756 9.48 113.396 9.4C113.056 9.32 112.596 9.28 112.016 9.28C110.916 9.28 109.856 9.6 108.836 10.24C107.836 10.86 106.896 11.93 106.016 13.45V22H103.556V7.42ZM121.364 7.42L130.604 7.42V22H128.144V9.43L121.364 9.43V7.42ZM129.104 4.42C128.524 4.42 128.044 4.25 127.664 3.91C127.304 3.57 127.124 3.11 127.124 2.53C127.124 1.95 127.304 1.49 127.664 1.15C128.044 0.789998 128.524 0.609998 129.104 0.609998C129.664 0.609998 130.134 0.789998 130.514 1.15C130.894 1.49 131.084 1.95 131.084 2.53C131.084 3.11 130.894 3.57 130.514 3.91C130.134 4.25 129.664 4.42 129.104 4.42ZM144.332 9.43L140.222 9.43V7.57L144.422 7.42L144.752 3.34H146.792V7.42L153.962 7.42V9.43H146.792V16.36C146.792 17.02 146.852 17.6 146.972 18.1C147.092 18.58 147.292 18.99 147.572 19.33C147.852 19.67 148.232 19.93 148.712 20.11C149.192 20.27 149.782 20.35 150.482 20.35C151.182 20.35 151.812 20.29 152.372 20.17C152.932 20.05 153.472 19.89 153.992 19.69L154.532 21.49C153.872 21.73 153.142 21.93 152.342 22.09C151.542 22.27 150.742 22.36 149.942 22.36C148.882 22.36 147.992 22.22 147.272 21.94C146.552 21.64 145.972 21.23 145.532 20.71C145.112 20.17 144.802 19.53 144.602 18.79C144.422 18.05 144.332 17.23 144.332 16.33V9.43ZM160.431 0.64H162.891V6.46L162.771 9.91C163.551 9.09 164.381 8.41 165.261 7.87C166.141 7.33 167.151 7.06 168.291 7.06C170.031 7.06 171.301 7.56 172.101 8.56C172.921 9.54 173.331 11 173.331 12.94V22H170.871V13.27C170.871 11.89 170.611 10.87 170.091 10.21C169.571 9.53 168.711 9.19 167.511 9.19C167.071 9.19 166.661 9.25 166.281 9.37C165.921 9.47 165.561 9.63 165.201 9.85C164.841 10.07 164.471 10.35 164.091 10.69C163.711 11.01 163.311 11.39 162.891 11.83V22H160.431V0.64ZM178.929 7.42H180.849L181.059 9.34H181.149C181.509 8.66 181.929 8.11 182.409 7.69C182.909 7.27 183.579 7.06 184.419 7.06C185.899 7.06 186.819 7.9 187.179 9.58C187.619 8.82 188.099 8.21 188.619 7.75C189.139 7.29 189.809 7.06 190.629 7.06C191.649 7.06 192.429 7.45 192.969 8.23C193.529 8.99 193.809 10.1 193.809 11.56V22H191.439V11.77C191.439 10.05 190.909 9.19 189.849 9.19C189.329 9.19 188.879 9.38 188.499 9.76C188.119 10.12 187.739 10.68 187.359 11.44V22H185.379V11.77C185.379 10.05 184.829 9.19 183.729 9.19C183.209 9.19 182.769 9.38 182.409 9.76C182.049 10.12 181.679 10.68 181.299 11.44V22H178.929V7.42ZM203.187 19.84C203.187 19.08 203.417 18.47 203.877 18.01C204.357 17.53 204.937 17.29 205.617 17.29C206.297 17.29 206.867 17.53 207.327 18.01C207.807 18.47 208.047 19.08 208.047 19.84C208.047 20.6 207.807 21.21 207.327 21.67C206.867 22.13 206.297 22.36 205.617 22.36C204.937 22.36 204.357 22.13 203.877 21.67C203.417 21.21 203.187 20.6 203.187 19.84Z" fill="#272727"/>
</svg>
